HIERARCHY
ROOT Hips
{
	OFFSET 0.000000 87.230942 0.000000
	CHANNELS 6 Xposition Yposition Zposition Xrotation Yrotation Zrotation
	JOINT Pelvis
	{
		OFFSET 0.000000 0.000000 0.000000
		CHANNELS 3 Xrotation Yrotation Zrotation
		JOINT LeftUpLeg
		{
			OFFSET 12.017000 -9.376404 -2.439400
			CHANNELS 3 Xrotation Yrotation Zrotation
			JOINT LeftLeg
			{
				OFFSET -0.007312 -32.846973 2.110600
				CHANNELS 3 Xrotation Yrotation Zrotation
				JOINT LeftFoot
				{
					OFFSET 0.007312 -32.065170 -0.570400
					CHANNELS 3 Xrotation Yrotation Zrotation
					JOINT LeftToeBase
					{
						OFFSET 0.728300 -11.045900 13.180700
						CHANNELS 3 Xrotation Yrotation Zrotation
						End Site
						{
							OFFSET 0.000000 17.212589 0.000000
						}
					}
				}
				JOINT LeftPantLeg
				{
					OFFSET 0.002788 -16.709013 -3.143600
					CHANNELS 3 Xrotation Yrotation Zrotation
					End Site
					{
						OFFSET -0.605125 24.528742 0.000000
					}
				}
			}
			JOINT Left_Butt
			{
				OFFSET -6.630234 1.326584 -3.183700
				CHANNELS 3 Xrotation Yrotation Zrotation
				End Site
				{
					OFFSET -0.498041 20.188049 0.000000
				}
			}
		}
		JOINT RightUpLeg
		{
			OFFSET -11.717000 -9.376404 -2.439400
			CHANNELS 3 Xrotation Yrotation Zrotation
			JOINT RightLeg
			{
				OFFSET -0.003241 -32.846912 2.110600
				CHANNELS 3 Xrotation Yrotation Zrotation
				JOINT RightFoot
				{
					OFFSET 0.003241 -32.065136 -0.570500
					CHANNELS 3 Xrotation Yrotation Zrotation
					JOINT RightToeBase
					{
						OFFSET -0.728300 -11.045901 13.180700
						CHANNELS 3 Xrotation Yrotation Zrotation
						End Site
						{
							OFFSET 0.000000 17.212593 0.000000
						}
					}
				}
				JOINT RightPantLeg
				{
					OFFSET 0.008142 -16.708982 -3.143700
					CHANNELS 3 Xrotation Yrotation Zrotation
					End Site
					{
						OFFSET 0.605088 24.528715 0.000000
					}
				}
			}
			JOINT Right_Butt
			{
				OFFSET 6.630732 1.326584 -3.183700
				CHANNELS 3 Xrotation Yrotation Zrotation
				End Site
				{
					OFFSET 0.498015 20.188240 0.000000
				}
			}
		}
	}
	JOINT Spine
	{
		OFFSET -0.062400 7.848404 3.918300
		CHANNELS 3 Xrotation Yrotation Zrotation
		JOINT Spine1
		{
			OFFSET -0.072800 11.422302 0.713400
			CHANNELS 3 Xrotation Yrotation Zrotation
			JOINT Spine2
			{
				OFFSET -0.083200 13.054001 -1.931600
				CHANNELS 3 Xrotation Yrotation Zrotation
				JOINT Neck
				{
					OFFSET -0.092200 14.121796 -5.138800
					CHANNELS 3 Xrotation Yrotation Zrotation
					JOINT Head
					{
						OFFSET 0.000200 10.447403 -0.842000
						CHANNELS 3 Xrotation Yrotation Zrotation
						JOINT Visor
						{
							OFFSET 0.457100 25.671204 16.550400
							CHANNELS 3 Xrotation Yrotation Zrotation
							End Site
							{
								OFFSET 0.000000 26.061493 0.000000
							}
						}
						JOINT HairMidA
						{
							OFFSET 0.459400 31.585403 8.437400
							CHANNELS 3 Xrotation Yrotation Zrotation
							End Site
							{
								OFFSET 0.000000 26.061493 0.000000
							}
						}
						JOINT HairMidB
						{
							OFFSET 0.464000 33.309204 -8.389700
							CHANNELS 3 Xrotation Yrotation Zrotation
							End Site
							{
								OFFSET 0.000000 26.061493 0.000000
							}
						}
						JOINT HairMidC
						{
							OFFSET 0.466600 27.991196 -17.375099
							CHANNELS 3 Xrotation Yrotation Zrotation
							End Site
							{
								OFFSET 0.000000 26.061493 0.000000
							}
						}
						JOINT HairMidD
						{
							OFFSET 0.467700 17.888092 -21.169500
							CHANNELS 3 Xrotation Yrotation Zrotation
							End Site
							{
								OFFSET 0.000000 26.061493 0.000000
							}
						}
						JOINT HairMidE
						{
							OFFSET 5.325700 3.514603 -14.369699
							CHANNELS 3 Xrotation Yrotation Zrotation
							End Site
							{
								OFFSET 0.000000 26.061493 0.000000
							}
						}
						JOINT HairMidF
						{
							OFFSET -4.394100 3.514603 -14.372400
							CHANNELS 3 Xrotation Yrotation Zrotation
							End Site
							{
								OFFSET 0.000000 26.061493 0.000000
							}
						}
						JOINT HairLeftA
						{
							OFFSET 15.319900 25.746506 2.623300
							CHANNELS 3 Xrotation Yrotation Zrotation
							End Site
							{
								OFFSET 0.000000 26.061493 0.000000
							}
						}
						JOINT HairLeftB
						{
							OFFSET 12.619500 29.289398 -8.731499
							CHANNELS 3 Xrotation Yrotation Zrotation
							End Site
							{
								OFFSET 0.000000 26.061493 0.000000
							}
						}
						JOINT HairLeftC
						{
							OFFSET 15.714800 15.959900 2.909800
							CHANNELS 3 Xrotation Yrotation Zrotation
							End Site
							{
								OFFSET 0.000000 26.061493 0.000000
							}
						}
						JOINT HairLeftD
						{
							OFFSET 16.101700 18.437408 -7.553200
							CHANNELS 3 Xrotation Yrotation Zrotation
							End Site
							{
								OFFSET 0.000000 26.061493 0.000000
							}
						}
						JOINT HairLeftE
						{
							OFFSET 9.731900 17.915009 -18.316799
							CHANNELS 3 Xrotation Yrotation Zrotation
							End Site
							{
								OFFSET 0.000000 26.061493 0.000000
							}
						}
						JOINT HairLeftF
						{
							OFFSET 11.204300 4.953598 -9.668100
							CHANNELS 3 Xrotation Yrotation Zrotation
							End Site
							{
								OFFSET 0.000000 26.061493 0.000000
							}
						}
						JOINT HairRightA
						{
							OFFSET -14.397900 25.746307 2.615100
							CHANNELS 3 Xrotation Yrotation Zrotation
							End Site
							{
								OFFSET 0.000000 26.061493 0.000000
							}
						}
						JOINT HairRightB
						{
							OFFSET -11.691200 29.289200 -8.738199
							CHANNELS 3 Xrotation Yrotation Zrotation
							End Site
							{
								OFFSET 0.000000 26.061493 0.000000
							}
						}
						JOINT HairRightC
						{
							OFFSET -14.792900 15.959702 2.901400
							CHANNELS 3 Xrotation Yrotation Zrotation
							End Site
							{
								OFFSET 0.000000 26.061493 0.000000
							}
						}
						JOINT HairRightD
						{
							OFFSET -15.174000 18.437195 -7.561900
							CHANNELS 3 Xrotation Yrotation Zrotation
							End Site
							{
								OFFSET 0.000000 26.061493 0.000000
							}
						}
						JOINT HairRightE
						{
							OFFSET -8.798200 17.914902 -18.322001
							CHANNELS 3 Xrotation Yrotation Zrotation
							End Site
							{
								OFFSET 0.000000 26.061493 0.000000
							}
						}
						JOINT HairRightF
						{
							OFFSET -10.275200 4.953506 -9.674099
							CHANNELS 3 Xrotation Yrotation Zrotation
							End Site
							{
								OFFSET 0.000000 26.061493 0.000000
							}
						}
					}
				}
				JOINT LeftShoulder
				{
					OFFSET 5.133500 7.341202 -1.867600
					CHANNELS 3 Xrotation Yrotation Zrotation
					JOINT LeftArm
					{
						OFFSET 8.072663 0.936867 -2.176600
						CHANNELS 3 Xrotation Yrotation Zrotation
						JOINT LeftForeArm
						{
							OFFSET 31.271999 0.000000 0.000000
							CHANNELS 3 Xrotation Yrotation Zrotation
							JOINT LeftHand
							{
								OFFSET 31.771030 0.000000 0.000000
								CHANNELS 3 Xrotation Yrotation Zrotation
								JOINT LeftHandThumb1
								{
									OFFSET 2.886520 -2.557846 4.416640
									CHANNELS 3 Xrotation Yrotation Zrotation
									JOINT LeftHandThumb2
									{
										OFFSET 2.371025 -1.368912 1.368911
										CHANNELS 3 Xrotation Yrotation Zrotation
										JOINT LeftHandThumb3
										{
											OFFSET 2.243378 -1.295212 1.295213
											CHANNELS 3 Xrotation Yrotation Zrotation
											End Site
											{
												OFFSET -0.332611 2.876945 0.020015
											}
										}
									}
								}
								JOINT LeftHandIndex1
								{
									OFFSET 8.568985 -0.641945 3.119977
									CHANNELS 3 Xrotation Yrotation Zrotation
									JOINT LeftHandIndex2
									{
										OFFSET 3.348503 0.000000 0.000000
										CHANNELS 3 Xrotation Yrotation Zrotation
										JOINT LeftHandIndex3
										{
											OFFSET 3.314552 0.000000 0.000000
											CHANNELS 3 Xrotation Yrotation Zrotation
											End Site
											{
												OFFSET -1.032898 3.075485 0.678796
											}
										}
									}
								}
								JOINT LeftHandMiddle1
								{
									OFFSET 8.124603 0.000000 0.000000
									CHANNELS 3 Xrotation Yrotation Zrotation
									JOINT LeftHandMiddle2
									{
										OFFSET 4.166275 0.000000 0.000000
										CHANNELS 3 Xrotation Yrotation Zrotation
										JOINT LeftHandMiddle3
										{
											OFFSET 3.018135 0.000000 0.000000
											CHANNELS 3 Xrotation Yrotation Zrotation
											End Site
											{
												OFFSET -1.032700 2.767982 0.617226
											}
										}
									}
								}
								JOINT LeftHandRing1
								{
									OFFSET 8.571686 -0.031357 -2.884048
									CHANNELS 3 Xrotation Yrotation Zrotation
									JOINT LeftHandRing2
									{
										OFFSET 3.671181 0.000000 0.000000
										CHANNELS 3 Xrotation Yrotation Zrotation
										JOINT LeftHandRing3
										{
											OFFSET 2.728851 0.000000 0.000000
											CHANNELS 3 Xrotation Yrotation Zrotation
											End Site
											{
												OFFSET -0.815796 2.539223 0.577389
											}
										}
									}
								}
								JOINT LeftHandPinky1
								{
									OFFSET 7.854515 -0.675232 -5.213020
									CHANNELS 3 Xrotation Yrotation Zrotation
									JOINT LeftHandPinky2
									{
										OFFSET 3.068596 0.000000 0.000000
										CHANNELS 3 Xrotation Yrotation Zrotation
										JOINT LeftHandPinky3
										{
											OFFSET 2.396042 0.000000 0.000000
											CHANNELS 3 Xrotation Yrotation Zrotation
											End Site
											{
												OFFSET -0.524597 2.267998 0.567429
											}
										}
									}
								}
							}
							JOINT LeftSleeve
							{
								OFFSET 19.684509 -0.200119 0.476146
								CHANNELS 3 Xrotation Yrotation Zrotation
								End Site
								{
									OFFSET -0.031017 25.731133 -0.002868
								}
							}
						}
					}
				}
				JOINT RightShoulder
				{
					OFFSET -4.395900 7.341202 -1.870200
					CHANNELS 3 Xrotation Yrotation Zrotation
					JOINT RightArm
					{
						OFFSET -8.071453 0.936867 -2.181100
						CHANNELS 3 Xrotation Yrotation Zrotation
						JOINT RightForeArm
						{
							OFFSET -31.272011 0.000000 0.000000
							CHANNELS 3 Xrotation Yrotation Zrotation
							JOINT RightHand
							{
								OFFSET -31.771019 0.000000 0.000000
								CHANNELS 3 Xrotation Yrotation Zrotation
								JOINT RightHandThumb1
								{
									OFFSET -2.886520 -2.557808 4.416626
									CHANNELS 3 Xrotation Yrotation Zrotation
									JOINT RightHandThumb2
									{
										OFFSET -2.371056 -1.368927 1.368928
										CHANNELS 3 Xrotation Yrotation Zrotation
										JOINT RightHandThumb3
										{
											OFFSET -2.243362 -1.295204 1.295206
											CHANNELS 3 Xrotation Yrotation Zrotation
											End Site
											{
												OFFSET 0.332642 2.876938 0.020047
											}
										}
									}
								}
								JOINT RightHandIndex1
								{
									OFFSET -8.568993 -0.641953 3.120017
									CHANNELS 3 Xrotation Yrotation Zrotation
									JOINT RightHandIndex2
									{
										OFFSET -3.348518 0.000000 0.000000
										CHANNELS 3 Xrotation Yrotation Zrotation
										JOINT RightHandIndex3
										{
											OFFSET -3.314552 0.000000 0.000000
											CHANNELS 3 Xrotation Yrotation Zrotation
											End Site
											{
												OFFSET 1.032898 3.075478 0.678804
											}
										}
									}
								}
								JOINT RightHandMiddle1
								{
									OFFSET -8.124588 0.000000 0.000000
									CHANNELS 3 Xrotation Yrotation Zrotation
									JOINT RightHandMiddle2
									{
										OFFSET -4.166275 0.000000 0.000000
										CHANNELS 3 Xrotation Yrotation Zrotation
										JOINT RightHandMiddle3
										{
											OFFSET -3.018097 0.000000 0.000000
											CHANNELS 3 Xrotation Yrotation Zrotation
											End Site
											{
												OFFSET 1.032700 2.767937 0.617197
											}
										}
									}
								}
								JOINT RightHandRing1
								{
									OFFSET -8.571747 -0.031349 -2.884061
									CHANNELS 3 Xrotation Yrotation Zrotation
									JOINT RightHandRing2
									{
										OFFSET -3.671204 0.000000 0.000000
										CHANNELS 3 Xrotation Yrotation Zrotation
										JOINT RightHandRing3
										{
											OFFSET -2.728874 0.000000 0.000000
											CHANNELS 3 Xrotation Yrotation Zrotation
											End Site
											{
												OFFSET 0.815804 2.539261 0.577413
											}
										}
									}
								}
								JOINT RightHandPinky1
								{
									OFFSET -7.854561 -0.675247 -5.212970
									CHANNELS 3 Xrotation Yrotation Zrotation
									JOINT RightHandPinky2
									{
										OFFSET -3.068550 0.000000 0.000000
										CHANNELS 3 Xrotation Yrotation Zrotation
										JOINT RightHandPinky3
										{
											OFFSET -2.395981 0.000000 0.000000
											CHANNELS 3 Xrotation Yrotation Zrotation
											End Site
											{
												OFFSET 0.524605 2.267952 0.567413
											}
										}
									}
								}
							}
							JOINT RightSleeve
							{
								OFFSET -19.684753 -0.200165 0.476065
								CHANNELS 3 Xrotation Yrotation Zrotation
								End Site
								{
									OFFSET 0.031342 25.731255 -0.002917
								}
							}
						}
					}
				}
				JOINT Hood
				{
					OFFSET 0.369700 14.447800 -5.317800
					CHANNELS 3 Xrotation Yrotation Zrotation
					JOINT Hood1
					{
						OFFSET 0.001700 -5.553802 -5.895100
						CHANNELS 3 Xrotation Yrotation Zrotation
						JOINT Hood2
						{
							OFFSET -0.000200 -8.380501 0.763600
							CHANNELS 3 Xrotation Yrotation Zrotation
							End Site
							{
								OFFSET 0.000000 8.415215 0.000000
							}
						}
					}
				}
				JOINT Left_Breast
				{
					OFFSET 5.682500 3.120102 3.188800
					CHANNELS 3 Xrotation Yrotation Zrotation
					End Site
					{
						OFFSET 0.000000 10.528564 0.000000
					}
				}
				JOINT Right_Breast
				{
					OFFSET -4.947600 3.120102 3.185900
					CHANNELS 3 Xrotation Yrotation Zrotation
					End Site
					{
						OFFSET 0.000000 10.528564 0.000000
					}
				}
				JOINT Whistle
				{
					OFFSET 0.368200 11.471298 0.095400
					CHANNELS 3 Xrotation Yrotation Zrotation
					JOINT Whistle1
					{
						OFFSET -0.002000 -6.349899 7.479800
						CHANNELS 3 Xrotation Yrotation Zrotation
						JOINT Whistle2
						{
							OFFSET -0.001300 -8.217598 4.717600
							CHANNELS 3 Xrotation Yrotation Zrotation
							End Site
							{
								OFFSET 0.000000 9.475479 0.000000
							}
						}
					}
				}
			}
		}
		JOINT Belly
		{
			OFFSET 0.212400 1.593002 3.163700
			CHANNELS 3 Xrotation Yrotation Zrotation
			End Site
			{
				OFFSET 0.000000 7.496635 0.000000
			}
		}
	}
	JOINT FitGrandmaFacialAnim_Joint
	{
		OFFSET 1.150000 -86.211197 -1.220100
		CHANNELS 3 Xrotation Yrotation Zrotation
		End Site
		{
			OFFSET 0.000000 31.666618 0.000000
		}
	}
}
MOTION
Frames: 4
Frame Time: 0.016667
1.158127 81.652496 -1.803851 1.621702 155.730458 1.980306 -0.000000 0.000000 -0.000000 -19.345845 -6.022899 11.329654 26.486092 -0.934966 -1.012797 -6.153925 -2.420940 -14.282077 0.000000 -0.000002 -0.000000 -0.000000 0.000000 0.000002 -0.000002 -0.000003 -0.000000 -15.556504 -13.736800 -19.530933 41.209297 1.345332 1.538310 -23.454310 -9.024253 10.379488 -0.000000 0.000002 -0.000000 -0.000000 0.000001 -0.000001 0.000001 0.000001 0.000001 5.547777 0.014714 -0.308650 11.095623 0.009768 -0.734627 11.095634 0.009770 -0.734628 -10.509366 -1.525007 -3.378806 -17.396265 -3.946699 2.467846 0.000000 0.000001 0.000000 0.000000 0.000001 0.000000 0.000000 0.000001 0.000000 0.000000 0.000001 0.000000 0.000000 0.000001 0.000000 0.000000 0.000001 0.000000 0.000000 0.000001 0.000000 0.000000 0.000001 0.000000 0.000000 0.000001 0.000000 0.000000 0.000001 0.000000 0.000000 0.000001 0.000000 0.000000 0.000001 0.000000 0.000000 0.000001 0.000000 0.000000 0.000001 0.000000 0.000000 0.000001 0.000000 0.000000 0.000001 0.000000 0.000000 0.000001 0.000000 0.000000 0.000001 0.000000 0.000000 0.000001 0.000000 9.458508 -6.444352 -14.996468 -9.678073 10.609547 -35.777190 0.014660 -55.260974 0.178982 23.478989 -9.549556 10.015916 7.350830 -14.484227 -10.934844 -1.067057 0.182845 1.946101 -0.000000 -0.000001 -0.000001 5.776122 -9.584543 -10.641310 0.033762 0.666534 -10.636472 0.000001 -0.000000 -0.000001 1.641862 7.127203 -4.239651 -0.187960 -0.789348 -15.969035 -0.000001 0.000000 -0.000001 1.677284 11.039969 -8.046055 -0.183068 -2.876852 -23.912164 -0.000000 0.000001 -0.000001 0.734530 28.047559 -16.218757 -0.849540 -6.142192 -29.148242 -0.000001 -0.000000 0.000001 0.000003 0.000001 -0.000000 -3.413063 0.044909 -0.357074 -8.509086 -11.385609 60.673588 -0.093546 56.136809 -0.118044 33.241352 -12.824968 -17.733586 -4.978387 12.391666 9.407266 -1.210144 -0.220448 -2.120994 -0.000000 0.000001 0.000000 10.258612 13.576557 6.067474 0.012528 -0.647881 4.076590 -0.000002 -0.000001 -0.000001 -1.738475 -1.670996 3.393790 -0.252703 0.798106 21.448273 -0.000000 0.000002 -0.000001 -0.824275 -13.700971 18.348837 -0.242214 2.213613 16.221197 -0.000000 -0.000001 -0.000001 -4.380740 -23.900603 30.060294 -0.233910 5.125297 12.870305 -0.000001 0.000000 0.000001 0.000001 0.000003 0.000001 -0.000000 0.000001 -0.000000 -0.000000 0.000001 -0.000000 -0.000000 0.000001 -0.000000 -0.000000 0.000001 -0.000000 -0.000000 0.000001 -0.000000 -0.000000 0.000001 -0.000000 0.000000 -0.000000 0.000000 0.000000 -0.000000 0.000000 0.000000 0.000001 -0.000000 -0.000000 0.000000 -0.000000 
1.164081 81.518578 -1.804904 1.094193 154.784094 2.042083 0.000000 0.000000 -0.000000 -20.269659 -4.833260 11.901528 27.568068 -0.966679 -1.052913 -6.789975 -2.865287 -14.197288 -0.000000 -0.000001 -0.000000 0.000000 -0.000001 -0.000001 -0.000002 -0.000000 -0.000000 -16.433720 -12.810639 -19.208746 41.732210 1.340674 1.555717 -23.485559 -8.899275 10.321931 0.000000 0.000003 0.000000 -0.000000 -0.000004 0.000003 -0.000000 -0.000000 0.000000 5.541045 -0.025564 -0.362533 11.081758 -0.077133 -0.835931 11.081755 -0.077138 -0.835928 -10.962305 -1.919706 -3.250079 -17.063819 -4.417242 3.165609 -0.000000 0.000001 0.000000 -0.000000 0.000001 0.000000 -0.000000 0.000001 0.000000 -0.000000 0.000001 0.000000 -0.000000 0.000001 0.000000 -0.000000 0.000001 0.000000 -0.000000 0.000001 0.000000 -0.000000 0.000001 0.000000 -0.000000 0.000001 0.000000 -0.000000 0.000001 0.000000 -0.000000 0.000001 0.000000 -0.000000 0.000001 0.000000 -0.000000 0.000001 0.000000 -0.000000 0.000001 0.000000 -0.000000 0.000001 0.000000 -0.000000 0.000001 0.000000 -0.000000 0.000001 0.000000 -0.000000 0.000001 0.000000 -0.000000 0.000001 0.000000 9.412427 -6.453409 -14.019423 -8.662124 10.477072 -35.400502 0.010211 -54.481953 0.179150 23.395498 -10.993424 10.180225 7.349509 -14.482229 -10.935198 -1.067031 0.182848 1.946023 0.000002 0.000002 -0.000001 5.776074 -9.584124 -10.640209 0.033760 0.666544 -10.636320 -0.000001 0.000000 -0.000005 1.641803 7.127182 -4.239314 -0.187954 -0.789350 -15.968861 -0.000001 -0.000000 -0.000001 1.677151 11.039886 -8.045501 -0.183070 -2.876807 -23.911720 0.000001 -0.000002 0.000005 0.734450 28.047053 -16.218508 -0.849501 -6.142072 -29.147720 -0.000000 -0.000001 0.000001 0.000000 -0.000000 0.000002 -3.299629 0.252114 -0.421620 -8.140533 -9.974494 59.691851 -0.093559 55.025404 -0.121949 32.733060 -11.033742 -18.050320 -4.980117 12.389506 9.406447 -1.210080 -0.220415 -2.120937 0.000000 -0.000000 0.000001 10.258446 13.576054 6.066705 0.012524 -0.647878 4.076578 0.000001 0.000002 -0.000000 -1.738413 -1.671042 3.393421 -0.252709 0.798102 21.447902 -0.000001 0.000005 -0.000001 -0.824413 -13.700836 18.347102 -0.242213 2.213573 16.220916 -0.000000 -0.000001 0.000001 -4.381144 -23.900189 30.057477 -0.233930 5.125187 12.870116 -0.000003 0.000000 -0.000002 -0.000000 0.000002 -0.000001 0.000000 0.000001 -0.000001 0.000000 0.000001 -0.000001 0.000000 0.000001 -0.000001 0.000000 0.000001 -0.000001 0.000000 0.000001 -0.000001 0.000000 0.000001 0.000000 0.000000 0.000001 0.000000 0.000000 0.000001 0.000000 0.000000 0.000001 -0.000000 0.000000 0.000000 -0.000000 
1.179829 81.309387 -1.807435 0.302028 153.395148 2.166189 -0.000000 -0.000002 -0.000000 -21.499666 -3.511519 12.683504 29.083226 -1.014577 -1.108823 -7.702253 -3.080361 -14.165957 0.000000 -0.000002 -0.000000 0.000001 0.000001 -0.000001 -0.000000 -0.000002 0.000001 -17.735326 -11.541021 -18.777162 42.475085 1.335408 1.580419 -23.512431 -8.614496 10.249741 -0.000000 -0.000000 0.000000 -0.000001 0.000001 0.000001 0.000002 0.000001 0.000001 5.532234 -0.066387 -0.424364 11.063668 -0.166385 -0.951348 11.063664 -0.166376 -0.951354 -11.367806 -2.308021 -3.134613 -16.612926 -4.878091 3.873084 -0.000000 -0.000001 -0.000000 -0.000000 -0.000001 -0.000000 -0.000000 -0.000001 -0.000000 -0.000000 -0.000001 -0.000000 -0.000000 -0.000001 -0.000000 -0.000000 -0.000001 -0.000000 -0.000000 -0.000001 -0.000000 -0.000000 -0.000001 -0.000000 -0.000000 -0.000001 -0.000000 -0.000000 -0.000001 -0.000000 -0.000000 -0.000001 -0.000000 -0.000000 -0.000001 -0.000000 -0.000000 -0.000001 -0.000000 -0.000000 -0.000001 -0.000000 -0.000000 -0.000001 -0.000000 -0.000000 -0.000001 -0.000000 -0.000000 -0.000001 -0.000000 -0.000000 -0.000001 -0.000000 -0.000000 -0.000001 -0.000000 9.287392 -6.480149 -13.016980 -7.148108 10.286338 -34.868150 0.002830 -53.374404 0.177122 23.239179 -12.346999 10.353360 7.347639 -14.479390 -10.935733 -1.066969 0.182825 1.945964 -0.000000 -0.000000 -0.000004 5.775951 -9.583583 -10.639064 0.033762 0.666510 -10.636091 0.000001 -0.000001 0.000000 1.641725 7.127112 -4.238973 -0.187948 -0.789337 -15.968608 -0.000001 0.000000 -0.000001 1.676990 11.039743 -8.044907 -0.183049 -2.876729 -23.911102 -0.000000 0.000001 -0.000003 0.734348 28.046324 -16.218153 -0.849450 -6.141886 -29.146951 -0.000000 -0.000000 -0.000000 -0.000001 0.000002 -0.000000 -3.131416 0.557773 -0.519411 -7.620059 -7.972473 58.297304 -0.094680 53.382850 -0.125849 32.021450 -8.492652 -18.497059 -4.982257 12.386628 9.405923 -1.210021 -0.220401 -2.120865 -0.000000 0.000001 -0.000001 10.258149 13.575363 6.065979 0.012516 -0.647872 4.076549 -0.000002 -0.000001 0.000001 -1.738349 -1.671123 3.393034 -0.252688 0.798089 21.447388 -0.000000 -0.000001 -0.000004 -0.824537 -13.700621 18.345285 -0.242211 2.213514 16.220526 -0.000002 -0.000000 -0.000002 -4.381542 -23.899588 30.054536 -0.233940 5.125055 12.869825 -0.000001 -0.000000 0.000001 0.000000 -0.000000 0.000004 0.000002 -0.000000 0.000000 0.000002 -0.000000 0.000000 0.000002 -0.000000 0.000000 0.000002 -0.000000 0.000000 0.000002 -0.000000 0.000000 0.000002 -0.000000 -0.000001 0.000002 -0.000000 0.000000 0.000002 -0.000000 0.000000 -0.000000 -0.000001 -0.000000 -0.000000 -0.000002 -0.000000 
1.212202 80.906883 -1.812298 -1.209740 150.799321 2.497877 -0.000000 -0.000001 -0.000000 -23.631157 -1.779980 14.068079 31.815267 -1.106081 -1.208859 -9.372169 -2.755731 -14.207904 0.000000 -0.000000 0.000000 -0.000000 0.000001 0.000001 -0.000001 0.000001 0.000001 -20.201005 -9.278581 -17.944570 43.832572 1.326237 1.625319 -23.532174 -8.003062 10.134110 0.000000 0.000002 -0.000000 -0.000002 -0.000001 -0.000000 0.000001 0.000001 0.000002 5.516932 -0.108582 -0.508912 11.032436 -0.262066 -1.106973 11.032434 -0.262064 -1.106975 -11.644141 -2.672798 -3.043678 -15.844133 -5.313089 4.602628 0.000000 -0.000000 0.000000 0.000000 -0.000000 0.000000 0.000000 -0.000000 0.000000 0.000000 -0.000000 0.000000 0.000000 -0.000000 0.000000 0.000000 -0.000000 0.000000 0.000000 -0.000000 0.000000 0.000000 -0.000000 0.000000 0.000000 -0.000000 0.000000 0.000000 -0.000000 0.000000 0.000000 -0.000000 0.000000 0.000000 -0.000000 0.000000 0.000000 -0.000000 0.000000 0.000000 -0.000000 0.000000 0.000000 -0.000000 0.000000 0.000000 -0.000000 0.000000 0.000000 -0.000000 0.000000 0.000000 -0.000000 0.000000 0.000000 -0.000000 0.000000 8.947988 -6.559116 -11.945467 -4.288854 9.928086 -33.890883 -0.012134 -51.337020 0.169253 22.892526 -13.455985 10.544932 7.344160 -14.474170 -10.936695 -1.066919 0.182794 1.945932 0.000001 -0.000000 -0.000002 5.775586 -9.582690 -10.637819 0.033749 0.666471 -10.635714 0.000001 -0.000002 0.000000 1.641594 7.126947 -4.238590 -0.187947 -0.789310 -15.968122 -0.000000 -0.000001 0.000005 1.676777 11.039389 -8.044196 -0.183004 -2.876574 -23.909975 -0.000001 0.000001 0.000000 0.734138 28.044960 -16.217526 -0.849281 -6.141627 -29.145527 -0.000003 0.000000 -0.000001 -0.000000 -0.000001 -0.000000 -2.814929 1.132003 -0.706646 -6.670050 -4.296623 55.732674 -0.098539 50.295952 -0.129460 30.742938 -3.827468 -19.312425 -4.985592 12.381772 9.406291 -1.209971 -0.220391 -2.120802 0.000001 -0.000001 -0.000002 10.257414 13.574222 6.065330 0.012523 -0.647845 4.076508 -0.000000 0.000003 0.000000 -1.738279 -1.671261 3.392609 -0.252678 0.798063 21.446451 -0.000000 -0.000001 -0.000002 -0.824684 -13.700142 18.343209 -0.242200 2.213415 16.219831 0.000001 -0.000002 -0.000001 -4.381913 -23.898386 30.051214 -0.233916 5.124810 12.869279 -0.000002 0.000000 0.000001 0.000001 0.000003 -0.000002 0.000000 0.000002 -0.000000 0.000000 0.000002 -0.000000 0.000000 0.000002 -0.000000 0.000000 0.000002 -0.000000 0.000000 0.000002 -0.000000 0.000000 0.000002 -0.000000 -0.000001 -0.000000 -0.000000 -0.000001 -0.000000 -0.000000 0.000000 0.000001 -0.000000 -0.000000 -0.000001 -0.000000 
